<?xml version="1.0" standalone="no"?>
<!DOCTYPE svg PUBLIC "-//W3C//DTD SVG 20010904//EN"
 "http://www.w3.org/TR/2001/REC-SVG-20010904/DTD/svg10.dtd">
<svg version="1.0" xmlns="http://www.w3.org/2000/svg"
 width="535.000000pt" height="535.000000pt" viewBox="0 0 535.000000 535.000000"
 preserveAspectRatio="xMidYMid meet">
<metadata>
Created by potrace 1.11, written by Peter Selinger 2001-2013
</metadata>
<g transform="translate(0.000000,535.000000) scale(0.100000,-0.100000)"
fill="#000000" stroke="none">
<path d="M2499 5296 c-2 -2 -29 -7 -59 -10 -30 -3 -66 -9 -80 -12 -14 -3 -45
-10 -70 -15 -78 -16 -190 -52 -190 -62 0 -4 -4 -6 -9 -3 -11 7 -91 -24 -91
-36 0 -5 -4 -7 -9 -3 -11 6 -61 -15 -61 -27 0 -4 -3 -7 -7 -6 -13 4 -73 -24
-73 -33 0 -5 -4 -8 -8 -7 -12 4 -211 -125 -254 -165 -21 -19 -38 -33 -38 -31
0 1 -31 -27 -70 -63 -38 -36 -67 -70 -64 -75 3 -4 1 -7 -4 -6 -16 5 -192 -215
-192 -241 0 -6 -4 -11 -9 -11 -5 0 -12 -8 -15 -17 -3 -10 -12 -27 -19 -38 -21
-33 -41 -70 -42 -75 0 -3 -8 -19 -18 -36 -9 -17 -13 -34 -10 -38 4 -3 2 -6 -4
-6 -6 0 -18 -19 -26 -42 -9 -24 -25 -70 -37 -103 -12 -33 -24 -67 -26 -75 -2
-8 -9 -35 -15 -60 -6 -25 -13 -52 -14 -60 -1 -8 -5 -26 -8 -40 -27 -109 -39
-367 -23 -495 4 -33 9 -78 11 -100 3 -22 9 -63 15 -90 12 -58 16 -83 24 -145
3 -25 8 -54 10 -65 5 -20 42 -199 52 -245 2 -14 7 -33 10 -42 3 -9 7 -25 9
-35 7 -36 54 -199 76 -268 12 -38 23 -75 25 -81 2 -14 61 -179 74 -209 5 -11
21 -53 36 -92 15 -40 30 -73 34 -73 4 0 7 -6 8 -12 2 -29 9 -50 18 -56 5 -4
10 -14 12 -23 1 -9 19 -49 39 -90 20 -41 37 -76 38 -79 10 -30 37 -80 45 -80
6 0 9 -3 7 -8 -4 -12 35 -92 45 -92 5 0 7 -4 3 -9 -3 -6 5 -20 17 -32 13 -12
16 -18 8 -14 -13 7 -13 6 0 -11 9 -10 22 -31 30 -47 7 -15 17 -27 22 -27 5 0
6 -4 3 -10 -3 -5 -2 -10 3 -10 6 0 10 212 11 568 2 969 8 1736 14 1758 3 12 8
45 12 74 4 29 10 63 15 74 4 12 8 26 9 31 3 22 23 89 31 104 4 9 21 43 36 76
16 33 35 66 42 73 7 8 10 18 7 23 -4 5 -2 9 3 9 9 0 61 65 104 129 10 14 18
22 18 18 0 -4 13 5 28 20 16 15 27 31 24 36 -2 4 0 6 5 5 8 -3 67 40 104 75
11 9 19 15 19 12 0 -7 83 47 92 60 4 5 8 7 8 3 0 -4 26 5 58 22 56 28 215 85
263 94 13 3 24 5 24 6 0 1 11 3 25 4 14 2 56 6 94 11 137 15 286 6 410 -24 22
-5 44 -8 48 -5 4 3 8 0 8 -7 0 -7 3 -10 6 -7 3 4 29 -4 59 -17 29 -13 56 -21
59 -18 3 4 6 1 6 -5 0 -7 9 -12 20 -12 11 0 20 -5 20 -11 0 -6 5 -9 12 -7 6 2
19 -2 27 -9 9 -8 48 -35 86 -60 39 -25 108 -85 155 -133 85 -87 140 -149 137
-153 -1 -1 9 -20 23 -42 60 -99 123 -272 136 -375 2 -19 7 -55 10 -80 7 -50 7
-204 0 -247 -2 -15 -8 -48 -11 -73 -11 -66 -11 -70 -30 -135 -10 -33 -26 -76
-36 -96 -10 -20 -15 -39 -12 -43 4 -3 1 -6 -5 -6 -6 0 -14 -10 -18 -22 -4 -13
-15 -34 -25 -47 -10 -13 -16 -28 -12 -34 3 -5 1 -7 -5 -3 -6 3 -13 -3 -17 -14
-3 -11 -11 -20 -17 -20 -6 0 -9 -3 -6 -6 3 -3 -9 -21 -28 -39 -19 -19 -34 -40
-34 -46 0 -7 -3 -9 -7 -6 -3 4 -15 -5 -25 -20 -10 -16 -18 -24 -18 -20 0 5 -7
1 -16 -7 -8 -9 -37 -30 -62 -48 -26 -17 -50 -36 -54 -42 -4 -6 -8 -8 -8 -3 0
4 -21 -3 -47 -17 -51 -25 -161 -63 -203 -70 -14 -3 -25 -5 -25 -6 0 -3 -40 -9
-95 -15 -30 -4 -65 -8 -78 -10 -22 -4 -214 -8 -278 -6 l-30 1 -1 400 c0 400 0
400 21 401 122 5 209 48 238 119 6 14 12 50 14 80 5 93 -37 159 -121 187 -43
14 -155 9 -166 -8 -5 -8 -9 -11 -9 -6 0 4 -14 0 -30 -8 -17 -9 -28 -20 -25
-25 4 -6 2 -10 -4 -10 -14 0 -40 -52 -48 -93 -11 -62 -14 -3397 -3 -3397 6 0
8 -4 5 -10 -3 -5 -3 -10 2 -10 4 0 30 -21 57 -45 55 -51 40 -54 131 25 51 45
353 347 385 385 14 17 24 33 22 37 -1 5 1 7 6 5 4 -1 9 3 11 8 2 6 12 16 22
23 11 7 19 20 19 28 0 8 5 12 10 9 6 -3 10 -2 10 2 0 5 13 23 29 41 17 17 28
32 27 32 -2 0 11 17 30 37 19 20 32 38 30 40 -2 2 14 23 35 46 22 23 42 50 45
60 3 9 9 17 14 17 12 0 45 61 41 75 -1 5 1 7 5 2 4 -4 29 26 55 65 26 40 52
78 56 83 25 29 52 83 45 90 -4 5 -2 5 4 2 10 -6 24 14 34 48 2 6 10 16 17 23
7 8 10 19 6 25 -3 7 -2 9 2 4 8 -6 54 64 58 88 1 5 6 13 10 16 14 10 197 381
192 389 -3 5 -2 10 3 12 4 1 20 32 35 68 16 36 32 74 37 85 53 123 171 479
197 590 6 30 9 38 16 60 3 11 9 31 11 45 3 14 15 68 26 120 11 52 23 106 25
120 3 14 7 35 9 46 6 31 16 93 22 134 2 19 6 42 9 50 2 8 7 35 10 60 3 25 8
58 11 73 23 115 18 481 -7 528 -5 10 -6 24 -3 32 3 8 0 18 -5 22 -6 3 -9 10
-6 14 13 22 -115 401 -136 401 -5 0 -8 3 -8 8 3 15 -23 72 -34 72 -6 0 -7 3
-4 6 4 4 -1 19 -11 33 -10 14 -24 38 -31 53 -7 14 -25 39 -40 55 -14 16 -27
32 -27 37 -3 17 -138 175 -146 170 -5 -3 -7 0 -6 8 2 7 -3 12 -10 10 -8 -1
-11 1 -8 6 6 11 -40 53 -48 45 -3 -4 -6 -1 -6 6 0 13 -50 63 -90 89 -14 9 -29
22 -33 29 -4 7 -14 13 -22 13 -7 0 -15 4 -17 9 -3 10 -123 91 -133 91 -4 0
-19 9 -35 20 -15 11 -30 17 -34 13 -3 -3 -6 -1 -6 5 0 10 -44 30 -46 21 0 -2
-8 4 -18 14 -10 9 -21 15 -26 12 -5 -3 -10 -2 -12 2 -7 17 -239 98 -313 109
-16 3 -37 7 -45 10 -8 3 -28 8 -45 11 -16 2 -41 7 -55 10 -28 6 -415 14 -421
9z"/>
</g>
</svg>
